<svg height="29" viewBox="0 0 153 29" width="153" xmlns="http://www.w3.org/2000/svg"><g fill="none" fill-rule="evenodd" transform=""><path d="m25.3596408 14.8596911c.0011246-2.1954702-.6371597-4.343748-1.8368885-6.18242744l4.4587299-4.45872978-3.3489687-3.34896866-4.4550387 4.45872978c-3.7577937-2.45062128-8.6082917-2.45062128-12.36608535 0l-4.46242079-4.45872978-3.34896866 3.34896866 4.45872978 4.45872978c-2.45062128 3.75779364-2.45062128 8.60829174 0 12.36608524l-4.45872978 4.4587298 3.34896866 3.3489687 4.45872979-4.4587298c3.75779365 2.4506212 8.60829165 2.4506212 12.36608525 0l4.4587298 4.4587298 3.3489687-3.3489687-4.4587299-4.4550387c1.2006455-1.8400821 1.8389696-3.9902037 1.8368885-6.1873489zm-18.00101419 0c-.00522741-2.7082196 1.63657573-5.14760065 4.14750799-6.16234202 2.5109323-1.01474136 5.3865919-.40099949 7.2644651 1.55042912 1.8778729 1.9514286 2.3807282 4.8485364 1.270308 7.3186474l-4.3750671-4.3812188-3.350199 3.350199 4.3762974 4.3750671c-2.0504043.9218024-4.4285176.7399016-6.314873-.4830215-1.88635531-1.2229232-3.02306716-3.3196819-3.01843939-5.5677603z" fill="#052892" fill-rule="nonzero"/><g fill="#1e2837"><path d="m49.443862 14.9940698c0 2.7352361-1.3866127 5.2045465-3.8559231 6.3442282l1.310634 1.7095226-2.6972468 1.3676181-1.804496-2.3933316h-.0569841c-4.4637534 0-7.104016-3.2480929-7.104016-7.0280373 0-3.7799443 2.6402626-7.02803719 7.104016-7.02803719s7.104016 3.24809289 7.104016 7.02803719zm-7.104016 4.2738065c2.5262945 0 3.8939125-1.9564537 3.8939125-4.2738065s-1.367618-4.2738064-3.8939125-4.2738064c-2.5452891 0-3.9129072 1.9564536-3.8939125 4.2738064-.0189947 2.3173528 1.3486234 4.2738065 3.8939125 4.2738065zm12.0806262 2.6212679c-2.2033847 0-3.3810558-1.3676181-3.3810558-3.741955v-5.6604191h2.9441778v5.0145995c0 1.2536499.4178833 1.9374589 1.5195756 1.9374589 1.2346552 0 1.7665066-.7977772 1.7665066-2.0324324v-4.919626h2.8871937v9.1554431h-2.8871937v-1.310634c-.5128567.9687294-1.4625915 1.557565-2.8492042 1.557565zm11.7957057 0c-2.7352361 0-4.3117958-2.0704218-4.3117958-4.8246526 0-2.7352361 1.6905278-4.8246526 4.3497852-4.8246526 1.3296286 0 2.3743369.626825 2.8681989 1.557565v-1.3106339h2.8871937v9.1554431h-2.8871937v-1.2916393c-.493862.9117454-1.6335437 1.5385703-2.9061883 1.5385703zm.8357666-2.4123263c1.4435968 0 2.1843899-1.0826976 2.1843899-2.4123263 0-1.310634-.7407931-2.3933316-2.1843899-2.3933316-1.3486234 0-2.18439 1.0067189-2.18439 2.3933316 0 1.3866128.8357666 2.4123263 2.18439 2.4123263zm7.3699417-6.9900478h2.9061884v1.3296286c.5318514-1.0257135 1.5765597-1.5765597 2.9631724-1.5765597 2.2223794 0 3.3430664 1.2536499 3.3430664 3.741955v5.6604192h-2.9251831v-4.7106845c0-1.5385703-.436878-2.241374-1.6145491-2.241374-1.1586764 0-1.7665066.7597878-1.7665066 2.1653953v4.7866632h-2.9061884zm16.3354379 6.8950743c.3608992 0 .7407931-.0189947 1.0067188-.0569841v2.3173529c-.4178833.0759787-1.1016923.1519575-1.9374589.1519575-1.367618 0-3.2480929-.3039151-3.2480929-3.362061v-3.6469815h-1.4435968v-2.2983581h1.4435968v-2.71624145h2.9061884v2.71624145h2.0704218v2.2983581h-2.0704218v3.0391512c0 1.3486234.5508462 1.557565 1.2726446 1.557565zm6.3442282 2.5452892c-2.678252 0-4.3307905-1.310634-4.3307905-3.0391512h2.8871936c0 .6268249.6078303 1.0826976 1.500581 1.0826976.6268249 0 1.0637029-.3229098 1.0637029-.8547613 0-.3608992-.1709523-.6648143-.6648143-.7787825l-2.2413741-.5698409c-1.5195756-.3798939-2.2983581-1.3296286-2.2983581-2.6402626 0-1.7095226 1.5005809-2.9061884 3.9129072-2.9061884 2.678252 0 4.083859 1.1206871 4.083859 2.8492043h-2.8681985c0-.6458196-.4748674-1.0067188-1.2536499-1.0067188-.6268249 0-1.0447082.3039151-1.0447082.7597878 0 .4178833.2849204.683809.7787825.8167719l2.1653953.5888355c1.4056078.3798939 2.3173528 1.2346552 2.3173528 2.5452892 0 1.8804748-1.500581 3.1531194-4.0078807 3.1531194zm10.6180347-2.5452892c.360899 0 .740793-.0189947 1.006719-.0569841v2.3173529c-.417884.0759787-1.101693.1519575-1.937459.1519575-1.367618 0-3.248093-.3039151-3.248093-3.362061v-3.6469815h-1.443597v-2.2983581h1.443597v-2.71624145h2.906188v2.71624145h2.070422v2.2983581h-2.070422v3.0391512c0 1.3486234.550846 1.557565 1.272645 1.557565zm6.325233 2.5072998c-2.735236 0-4.311795-2.0704218-4.311795-4.8246526 0-2.7352361 1.690527-4.8246526 4.349785-4.8246526 1.329628 0 2.374337.626825 2.868199 1.557565v-1.3106339h2.887193v9.1554431h-2.887193v-1.2916393c-.493862.9117454-1.633544 1.5385703-2.906189 1.5385703zm.835767-2.4123263c1.443597 0 2.18439-1.0826976 2.18439-2.4123263 0-1.310634-.740793-2.3933316-2.18439-2.3933316-1.348623 0-2.18439 1.0067189-2.18439 2.3933316 0 1.3866128.835767 2.4123263 2.18439 2.4123263zm7.369942-6.9900478h2.906188v1.3296286c.398889-.9117453 1.348623-1.5765597 2.621268-1.5765597 1.633544 0 2.46931.7217984 2.868199 1.6905279.493862-.9877241 1.57656-1.6905279 2.925183-1.6905279 2.621268 0 3.248093 1.8044961 3.248093 3.7229603v5.6794139h-2.925183v-5.1475624c0-1.2726446-.474867-1.8044961-1.367618-1.8044961-.911746 0-1.53857.5128568-1.53857 2.241374v4.7106845h-2.925184v-5.1665571c0-1.2726446-.455872-1.7855014-1.348623-1.7855014-.93074 0-1.557565.5128568-1.557565 2.241374v4.7106845h-2.906188zm16.867289 0h2.906188v1.3106339c.474868-.8737559 1.61455-1.557565 2.982168-1.557565 2.507299 0 4.216822 1.9374589 4.216822 4.8246526 0 2.868199-1.766507 4.8246526-4.292801 4.8246526-1.348624 0-2.450316-.683809-2.906189-1.5385703v5.0905783h-2.906188zm4.97661 6.9900478c1.272645 0 2.165395-.9877241 2.165395-2.4123263 0-1.4056074-.89275-2.3933316-2.165395-2.3933316-1.310634 0-2.203384.9687295-2.203384 2.3933316 0 1.4435968.911745 2.4123263 2.203384 2.4123263z"/><path d="m149.57371 13.5421716v-1.675h-.465v-.36h1.34v.36h-.47v1.675zm1.145 0v-2.035h.68l.41 1.33.405-1.33h.68v2.035h-.4v-1.63l-.51 1.63h-.355l-.51-1.63v1.63z"/></g></g></svg>