<svg xmlns="http://www.w3.org/2000/svg" width="389" height="70" viewBox="0 0 389 70">
    <g fill="none" fill-rule="evenodd">
        <g fill="#83AED8">
            <path d="M34.691 1.373l23.556 13.562c2.498 1.428 3.569 3.57 3.569 6.424v27.125c0 2.855-1.071 4.996-3.57 6.424L34.692 68.47c-2.14 1.427-4.996 1.427-7.494 0L3.64 54.908C1.501 53.48.072 51.338.072 48.484V21.359c0-2.855 1.428-4.996 3.57-6.424L27.196 1.373c2.498-1.427 5.353-1.427 7.494 0zM32.952 3.92a3.323 3.323 0 0 0-3.658 0L5.148 17.821c-1.463.732-1.83 1.83-1.83 3.293v27.804c0 1.464.367 2.561 1.83 3.293l24.146 13.902a3.323 3.323 0 0 0 3.658 0l24.146-13.902c1.098-.732 1.83-1.83 1.83-3.293V21.114c0-1.463-.732-2.561-1.83-3.293L32.952 3.92z"/>
            <path fill-rule="nonzero" stroke="#83AED8" d="M30.872 17.661a.784.784 0 0 0-.699.797v1.2c-7.81.397-14.085 6.671-14.482 14.482h-1.2a.784.784 0 1 0 0 1.569h1.2c.397 7.81 6.671 14.097 14.482 14.494v1.188a.784.784 0 1 0 1.568 0v-1.188c7.817-.391 14.098-6.68 14.495-14.494h1.188a.784.784 0 1 0 0-1.569h-1.188c-.397-7.815-6.678-14.09-14.495-14.482v-1.2a.784.784 0 0 0-.87-.797zm-.699 3.553v1.164a.784.784 0 1 0 1.568 0v-1.164c6.961.39 12.52 5.966 12.914 12.926h-1.151a.784.784 0 1 0 0 1.569h1.151a13.699 13.699 0 0 1-12.914 12.913v-1.151a.784.784 0 1 0-1.568 0v1.151c-6.96-.394-12.524-5.953-12.914-12.913h1.152a.784.784 0 1 0 0-1.569H17.26c.396-6.955 5.958-12.53 12.914-12.926zm.784 8.221a5.5 5.5 0 0 0-5.489 5.49 5.5 5.5 0 0 0 5.49 5.488 5.5 5.5 0 0 0 5.488-5.489 5.5 5.5 0 0 0-5.489-5.489zm0 1.569a3.909 3.909 0 0 1 3.921 3.92 3.909 3.909 0 0 1-3.92 3.921 3.909 3.909 0 0 1-3.921-3.92 3.909 3.909 0 0 1 3.92-3.921z"/>
        </g>
        <g fill="#052892">
            <path d="M279.754 1.373l23.555 13.562c2.498 1.428 3.57 3.57 3.57 6.424v27.125c0 2.855-1.072 4.996-3.57 6.424L279.754 68.47c-2.141 1.427-4.997 1.427-7.495 0l-23.555-13.562c-2.141-1.428-3.569-3.57-3.569-6.424V21.359c0-2.855 1.428-4.996 3.569-6.424l23.555-13.562c2.498-1.427 5.354-1.427 7.495 0zm-1.74 2.546a3.323 3.323 0 0 0-3.658 0l-24.145 13.902c-1.464.732-1.83 1.83-1.83 3.293v27.804c0 1.464.366 2.561 1.83 3.293l24.145 13.902a3.323 3.323 0 0 0 3.659 0l24.146-13.902c1.097-.732 1.829-1.83 1.829-3.293V21.114c0-1.463-.732-2.561-1.83-3.293L278.016 3.92z"/>
            <g fill-rule="nonzero" stroke="#052892">
                <path d="M275.573 28.336a.612.612 0 0 0 .413.169.73.73 0 0 0 .11-.012.36.36 0 0 0 .11-.035.324.324 0 0 0 .099-.052 1.25 1.25 0 0 0 .093-.07.672.672 0 0 0 .122-.192.582.582 0 0 0 .047-.22.601.601 0 0 0-.169-.413 1.336 1.336 0 0 0-.093-.07.324.324 0 0 0-.099-.052.596.596 0 0 0-.633.122.903.903 0 0 0-.07.087.432.432 0 0 0-.052.104.383.383 0 0 0-.035.105.582.582 0 0 0 .035.337c.03.07.07.136.122.192zM276.398 41.456a1.336 1.336 0 0 0-.093-.07.324.324 0 0 0-.099-.052.579.579 0 0 0-.633.122.67.67 0 0 0-.122.192.58.58 0 0 0-.035.337.379.379 0 0 0 .035.104.43.43 0 0 0 .052.105c.022.03.045.06.07.087a.612.612 0 0 0 .413.169.73.73 0 0 0 .11-.012.36.36 0 0 0 .11-.035.324.324 0 0 0 .1-.052 1.25 1.25 0 0 0 .092-.07.6.6 0 0 0 .169-.412.58.58 0 0 0-.047-.221.676.676 0 0 0-.122-.192zM273.603 28.923c.153.001.3-.06.407-.169a1.02 1.02 0 0 0 .075-.087c.018-.035.035-.064.052-.099l.036-.11a.566.566 0 0 0-.163-.523.372.372 0 0 0-.087-.076 1.74 1.74 0 0 0-.099-.052c-.035-.011-.076-.023-.11-.035a.584.584 0 0 0-.649.796c.09.216.303.357.538.355zM278.78 41.038a.552.552 0 0 0-.087-.076c-.035-.017-.064-.035-.098-.052a.816.816 0 0 0-.111-.03.5.5 0 0 0-.226 0 .796.796 0 0 0-.111.03c-.035.017-.07.035-.099.052a.38.38 0 0 0-.087.076.51.51 0 0 0-.128.186.569.569 0 0 0 .128.634c.025.029.054.054.087.075.03.017.064.035.099.052a.794.794 0 0 0 .11.035c.037.007.074.01.11.011a.766.766 0 0 0 .117-.011.809.809 0 0 0 .11-.035c.035-.017.064-.035.1-.052a.552.552 0 0 0 .086-.076.56.56 0 0 0 .169-.407.625.625 0 0 0-.04-.226.601.601 0 0 0-.129-.186zM270.965 29.777a.604.604 0 0 0 .128.192.587.587 0 0 0 .413.169.605.605 0 0 0 .406-.17.597.597 0 0 0 .076-.092c.017-.03.034-.064.052-.099l.035-.11a.667.667 0 0 0 .012-.11.732.732 0 0 0-.012-.117l-.035-.11c-.017-.035-.035-.064-.052-.1a.715.715 0 0 0-.262-.215.596.596 0 0 0-.447 0 .71.71 0 0 0-.261.216c-.018.035-.036.064-.053.099-.012.034-.023.075-.035.11a.804.804 0 0 0-.011.116.732.732 0 0 0 .011.11l.035.111zM280.79 39.754a.76.76 0 0 0-.098-.053.584.584 0 0 0-.761.76c.028.072.072.136.128.187a.562.562 0 0 0 .523.157.787.787 0 0 0 .11-.029.814.814 0 0 0 .186-.128.588.588 0 0 0 .128-.186.624.624 0 0 0 .04-.226.586.586 0 0 0-.168-.413c-.029-.023-.059-.046-.087-.07zM269.535 30.997a.586.586 0 0 0-.168.413.575.575 0 0 0 .04.22c.032.071.076.136.128.192a.58.58 0 0 0 .82-.825.6.6 0 0 0-.82 0zM282.435 37.97a.579.579 0 0 0-.732-.07.583.583 0 0 0 0 .964c.03.024.063.041.099.053.034.018.072.03.11.035.037.007.074.01.11.012a.6.6 0 0 0 .413-.169.672.672 0 0 0 .122-.192.547.547 0 0 0 0-.442.672.672 0 0 0-.122-.191zM269.117 34.269a.587.587 0 0 0 .581-.581.507.507 0 0 0-.046-.227.572.572 0 0 0-.122-.186.601.601 0 0 0-.82 0 .507.507 0 0 0-.127.186.61.61 0 0 0-.047.227.596.596 0 0 0 .581.58zM283.388 35.884a.328.328 0 0 0-.052-.099.373.373 0 0 0-.076-.087.594.594 0 0 0-.523-.163l-.11.035c-.035.018-.064.035-.099.052a1.07 1.07 0 0 0-.087.076.563.563 0 0 0-.157.523.793.793 0 0 0 .029.11.554.554 0 0 0 .058.099.319.319 0 0 0 .07.087c.028.027.057.052.087.076.035.017.064.035.099.052a.797.797 0 0 0 .226.04.56.56 0 0 0 .407-.168.543.543 0 0 0 .174-.412.723.723 0 0 0-.011-.11.413.413 0 0 0-.035-.111zM269.53 36.517a.576.576 0 0 0 .122-.186.507.507 0 0 0 .046-.226.587.587 0 0 0-.168-.407.595.595 0 0 0-.82 0 .568.568 0 0 0 0 .82.563.563 0 0 0 .524.156.72.72 0 0 0 .104-.029l.105-.052c.03-.024.06-.049.087-.076zM282.44 33.275a.576.576 0 0 0-.156.523.624.624 0 0 0 .029.11.554.554 0 0 0 .058.1c.017.033.04.063.07.086.027.027.057.052.087.076.035.017.064.035.099.052l.11.035a.566.566 0 0 0 .523-.163.375.375 0 0 0 .075-.087.328.328 0 0 0 .053-.099.358.358 0 0 0 .035-.11.732.732 0 0 0 .011-.11.802.802 0 0 0-.011-.117.416.416 0 0 0-.035-.11.554.554 0 0 0-.128-.186.579.579 0 0 0-.523-.157.764.764 0 0 0-.11.03l-.099.051c-.03.024-.06.05-.087.076zM269.535 37.97a.59.59 0 0 0 0 .825c.111.107.259.167.413.169a.58.58 0 0 0 .407-.994.6.6 0 0 0-.82 0zM281.912 30.84a.347.347 0 0 0-.11.035.586.586 0 0 0-.262.21.457.457 0 0 0-.052.104.68.68 0 0 0-.035.105.592.592 0 0 0 .25.598c.03.023.063.04.099.052.034.018.072.03.11.035.037.007.074.01.11.012a.812.812 0 0 0 .117-.012.377.377 0 0 0 .104-.035.443.443 0 0 0 .105-.052 19.4 19.4 0 0 0 .087-.07.974.974 0 0 0 .07-.087.43.43 0 0 0 .052-.104.382.382 0 0 0 .035-.105.6.6 0 0 0 0-.232.378.378 0 0 0-.035-.105.432.432 0 0 0-.052-.105.903.903 0 0 0-.07-.087.596.596 0 0 0-.523-.157zM272.04 40.015a1.908 1.908 0 0 0-.052-.099.373.373 0 0 0-.075-.087.51.51 0 0 0-.187-.128.596.596 0 0 0-.447 0 .508.508 0 0 0-.186.128.375.375 0 0 0-.075.087c-.018.03-.035.064-.053.1l-.035.11a.58.58 0 0 0 .163.523.592.592 0 0 0 .186.127.58.58 0 0 0 .227.041.57.57 0 0 0 .22-.04.595.595 0 0 0 .187-.128.582.582 0 0 0 .162-.523l-.035-.11zM280.059 29.963a.568.568 0 0 0 .819 0 .588.588 0 0 0 .128-.186.598.598 0 0 0-.128-.634.807.807 0 0 0-.186-.128.787.787 0 0 0-.11-.028.576.576 0 0 0-.523.976zM274.01 41.038a.601.601 0 0 0-.82 0 .59.59 0 0 0-.127.186.605.605 0 0 0-.041.226.575.575 0 0 0 .04.221c.03.07.074.133.128.186a.569.569 0 0 0 .82 0 .591.591 0 0 0 .174-.407.59.59 0 0 0-.174-.413zM278.048 28.83c.03.017.064.035.099.052a.764.764 0 0 0 .22.04.787.787 0 0 0 .227-.04c.035-.017.064-.035.1-.052a.538.538 0 0 0 .086-.076.582.582 0 0 0 0-.819.538.538 0 0 0-.185-.128.859.859 0 0 0-.111-.035.738.738 0 0 0-.226 0 .828.828 0 0 0-.111.035c-.035.018-.07.035-.099.052a.375.375 0 0 0-.087.076.568.568 0 0 0 0 .82c.025.029.054.054.087.075z"/>
                <path stroke-width=".5" d="M290.512 36.058c.641 0 1.161-.52 1.162-1.162V33.07a2.32 2.32 0 0 0-.581-4.565 2.32 2.32 0 0 0-.581 4.565v1.826h-4.649a9.812 9.812 0 0 0-2.893-6.984 9.986 9.986 0 0 0-1.174-.992v-.74h8.135c.641 0 1.161-.52 1.162-1.162v-1.244a2.324 2.324 0 1 0-1.162 0v1.244h-8.135c-.64.001-1.158.518-1.162 1.157a9.797 9.797 0 0 0-4.067-1.128v-1.19h2.324c.641-.002 1.161-.521 1.162-1.163v-.664a2.324 2.324 0 1 0-1.162 0v.664h-2.324c-.642 0-1.162.52-1.163 1.162v1.19a9.871 9.871 0 0 0-2.324.406V20.95c0-.642-.52-1.161-1.162-1.162h-5.893a2.324 2.324 0 1 0 0 1.162h5.893v4.95a9.863 9.863 0 0 0-5.377 6.09h-5.082v-2.988a2.324 2.324 0 1 0-1.162 0v2.988c0 .641.52 1.161 1.162 1.162h4.809a9.971 9.971 0 0 0-.16 1.743h-1.162c-.642 0-1.162.52-1.163 1.162v8.135h-.663a2.324 2.324 0 1 0 0 1.162h.663c.642 0 1.162-.52 1.163-1.162v-8.135h1.236a9.833 9.833 0 0 0 5.736 7.834v5.53h-3.569a2.324 2.324 0 1 0 0 1.163h3.57c.64-.001 1.16-.521 1.161-1.163V44.34a9.872 9.872 0 0 0 2.324.406v1.19c.001.641.521 1.161 1.163 1.162h4.067v.664a2.324 2.324 0 1 0 1.162 0v-.664c0-.641-.52-1.161-1.162-1.162h-4.067v-1.19a9.798 9.798 0 0 0 6.403-2.865 9.912 9.912 0 0 0 1.736-2.337h4.644v5.893a2.324 2.324 0 1 0 1.162 0v-5.893c-.001-.641-.52-1.16-1.162-1.162h-4.128c.283-.748.474-1.529.567-2.324h4.723zm-.581-5.23a1.162 1.162 0 1 1 2.324 0 1.162 1.162 0 0 1-2.324 0zm-.581-9.296a1.162 1.162 0 1 1 2.324 0 1.162 1.162 0 0 1-2.324 0zm-11.04-1.743a1.162 1.162 0 1 1 2.324 0 1.162 1.162 0 0 1-2.324 0zm-14.527 1.743a1.162 1.162 0 1 1 0-2.324 1.162 1.162 0 0 1 0 2.324zm-2.905 6.392a1.162 1.162 0 1 1 0-2.324 1.162 1.162 0 0 1 0 2.324zm0 18.012a1.162 1.162 0 1 1 0-2.324 1.162 1.162 0 0 1 0 2.324zm5.23 5.23a1.162 1.162 0 1 1 0-2.325 1.162 1.162 0 0 1 0 2.325zm15.107-2.325a1.162 1.162 0 1 1 0 2.324 1.162 1.162 0 0 1 0-2.324zm.933-7.782a8.715 8.715 0 1 1 2.553-6.163 8.658 8.658 0 0 1-2.553 6.163zm7.783 5.458a1.162 1.162 0 1 1 0 2.324 1.162 1.162 0 0 1 0-2.324z"/>
            </g>
        </g>
        <g fill="#FFB700">
            <path d="M116.193 1.357l23.555 13.562c2.498 1.428 3.569 3.569 3.569 6.424v27.124c0 2.856-1.071 4.997-3.57 6.424l-23.554 13.563c-2.142 1.427-4.997 1.427-7.495 0L85.143 54.89c-2.142-1.427-3.57-3.568-3.57-6.424V21.343c0-2.855 1.428-4.996 3.57-6.424l23.555-13.562c2.498-1.428 5.353-1.428 7.495 0zm-1.919 2.451a3.323 3.323 0 0 0-3.658 0L86.47 17.71c-1.463.732-1.83 1.83-1.83 3.293v27.804c0 1.464.367 2.561 1.83 3.293l24.146 13.902a3.323 3.323 0 0 0 3.658 0L138.42 52.1c1.098-.732 1.83-1.83 1.83-3.293V21.003c0-1.463-.732-2.56-1.83-3.293L114.274 3.808z"/>
            <g fill-rule="nonzero" stroke="#FFB700" stroke-width=".5">
                <path d="M100.244 35.623H98.81v1.435h.717v3.589h1.436V36.34a.718.718 0 0 0-.718-.718zM105.986 42.082h-1.436v1.436h.718v3.588h1.436V42.8a.718.718 0 0 0-.718-.718zM102.397 42.082h-2.87a.718.718 0 0 0-.718.718v3.589c0 .396.321.717.717.717h2.871a.718.718 0 0 0 .718-.717V42.8a.718.718 0 0 0-.718-.718zm-.717 3.589h-1.436v-2.153h1.436v2.153zM105.986 35.623h-2.871a.718.718 0 0 0-.718.718v3.588c0 .397.322.718.718.718h2.87a.718.718 0 0 0 .719-.718v-3.588a.718.718 0 0 0-.718-.718zm-.718 3.589h-1.435v-2.154h1.435v2.154zM111.727 35.623h-2.87a.718.718 0 0 0-.718.718v3.588c0 .397.321.718.718.718h2.87a.718.718 0 0 0 .718-.718v-3.588a.718.718 0 0 0-.718-.718zm-.717 3.589h-1.436v-2.154h1.436v2.154zM115.316 42.082h-2.87a.718.718 0 0 0-.719.718v3.589c0 .396.322.717.718.717h2.871a.718.718 0 0 0 .718-.717V42.8a.718.718 0 0 0-.718-.718zm-.718 3.589h-1.435v-2.153h1.435v2.153zM105.986 29.164h-1.436v1.435h.718v3.589h1.436V29.88a.718.718 0 0 0-.718-.717zM115.316 29.164h-1.435v1.435h.717v3.589h1.436V29.88a.718.718 0 0 0-.718-.717zM115.316 35.623h-1.435v1.435h.717v3.589h1.436V36.34a.718.718 0 0 0-.718-.718zM109.574 42.082h-1.435v1.436h.718v3.588h1.435V42.8a.718.718 0 0 0-.718-.718zM102.397 29.164h-2.87a.718.718 0 0 0-.718.717v3.589c0 .396.321.718.717.718h2.871a.718.718 0 0 0 .718-.718V29.88a.718.718 0 0 0-.718-.717zm-.717 3.588h-1.436V30.6h1.436v2.153zM111.727 29.164h-2.87a.718.718 0 0 0-.718.717v3.589c0 .396.321.718.718.718h2.87a.718.718 0 0 0 .718-.718V29.88a.718.718 0 0 0-.718-.717zm-.717 3.588h-1.436V30.6h1.436v2.153z"/>
                <path d="M118.905 19.116h-15.79a.718.718 0 0 0-.507.21l-7.178 7.177a.718.718 0 0 0-.21.507v22.967c0 .397.322.718.718.718h22.967a.718.718 0 0 0 .717-.718V19.833a.718.718 0 0 0-.717-.717zm-.718 30.143H96.656V27.73h6.459a.718.718 0 0 0 .718-.719v-4.306h-1.436v3.589H97.67l5.742-5.742h14.775V49.26zM123.929 19.116h-2.871v1.435h2.153V49.26h-2.153v1.436h2.87a.718.718 0 0 0 .718-.718V19.833a.718.718 0 0 0-.717-.717zM128.952 19.116h-2.87v1.435h2.153V49.26h-2.153v1.436h2.87a.718.718 0 0 0 .718-.718V19.833a.718.718 0 0 0-.718-.717z"/>
                <path d="M113.88 23.422v-1.435h-7.894a.718.718 0 0 0-.718.717v2.871c0 .396.321.718.718.718h7.895v-1.436h-7.177v-1.435h7.177zM115.316 21.986h1.435v1.435h-1.435zM115.316 24.857h1.435v1.435h-1.435z"/>
            </g>
        </g>
        <g fill="#FF7E2E">
            <path d="M361.733 1.373l23.555 13.562c2.499 1.428 3.57 3.57 3.57 6.424v27.125c0 2.855-1.071 4.996-3.57 6.424L361.733 68.47c-2.141 1.427-4.996 1.427-7.495 0l-23.555-13.562c-2.141-1.428-3.569-3.57-3.569-6.424V21.359c0-2.855 1.428-4.996 3.57-6.424l23.554-13.562c2.499-1.427 5.354-1.427 7.495 0zm-1.739 2.546a3.323 3.323 0 0 0-3.658 0L332.19 17.821c-1.464.732-1.83 1.83-1.83 3.293v27.804c0 1.464.366 2.561 1.83 3.293l24.146 13.902a3.323 3.323 0 0 0 3.658 0l24.146-13.902c1.097-.732 1.83-1.83 1.83-3.293V21.114c0-1.463-.733-2.561-1.83-3.293L359.994 3.92z"/>
            <g fill-rule="nonzero" transform="translate(340.327 17.955)">
                <path d="M26.554 3.963c.238 0 .397-.158.397-.396V1.189c0-.238-.159-.396-.397-.396-.238 0-.396.158-.396.396v2.378c0 .238.158.396.396.396zM30.518 30.914c-.238 0-.397.158-.397.396v1.586c0 .237.159.396.397.396.237 0 .396-.159.396-.396V31.31c0-.238-.159-.396-.396-.396zM30.518 3.963c.237 0 .396-.158.396-.396V1.982c0-.238-.159-.397-.396-.397-.238 0-.397.159-.397.397v1.585c0 .238.159.396.397.396zM33.688 22.987c-.238 0-.396.159-.396.397v3.963c0 .238.158.396.396.396.238 0 .397-.158.397-.396v-3.963c0-.238-.159-.397-.397-.397zM33.292 8.323v2.378c0 .238.158.396.396.396.238 0 .397-.158.397-.396V8.323c0-.238-.159-.396-.397-.396-.238 0-.396.158-.396.396zM9.116 15.853h4.756c.237 0 .396-.158.396-.396 0-.238-.159-.396-.396-.396H9.116c-.238 0-.397.158-.397.396 0 .238.159.396.397.396zM13.475 20.213c0 .238.159.396.397.396h4.756c.237 0 .396-.158.396-.396 0-.238-.159-.396-.396-.396h-4.756c-.238 0-.397.158-.397.396zM13.872 24.573H9.116c-.238 0-.397.158-.397.396 0 .238.159.396.397.396h4.756c.237 0 .396-.158.396-.396 0-.238-.159-.396-.396-.396zM9.116 20.61h3.17c.238 0 .397-.16.397-.397 0-.238-.159-.396-.397-.396h-3.17c-.238 0-.397.158-.397.396 0 .238.159.396.397.396zM9.116 23.78h3.17c.238 0 .397-.159.397-.396 0-.238-.159-.397-.397-.397h-3.17c-.238 0-.397.159-.397.397 0 .237.159.396.397.396zM9.116 17.439h5.548c.238 0 .397-.159.397-.397 0-.238-.159-.396-.397-.396H9.116c-.238 0-.397.158-.397.396 0 .238.159.397.397.397zM11.89 18.628c0 .237.158.396.396.396h5.549c.238 0 .396-.159.396-.396 0-.238-.158-.397-.396-.397h-5.549c-.238 0-.396.159-.396.397zM9.116 22.195h5.548c.238 0 .397-.159.397-.397 0-.238-.159-.396-.397-.396H9.116c-.238 0-.397.158-.397.396 0 .238.159.397.397.397zM15.06 15.457c0 .238.16.396.397.396h2.378c.238 0 .396-.158.396-.396 0-.238-.158-.396-.396-.396h-2.378c-.238 0-.396.158-.396.396zM13.079 13.475h3.963c.238 0 .397-.158.397-.396 0-.238-.159-.396-.397-.396H13.08c-.238 0-.396.158-.396.396 0 .238.158.396.396.396zM9.116 19.024H10.7c.238 0 .396-.159.396-.396 0-.238-.158-.397-.396-.397H9.116c-.238 0-.397.159-.397.397 0 .237.159.396.397.396zM17.835 22.987H16.25c-.238 0-.397.159-.397.397 0 .237.159.396.397.396h1.585c.238 0 .396-.159.396-.396 0-.238-.158-.397-.396-.397zM19.42 22.195h.793c.238 0 .396-.159.396-.397 0-.238-.158-.396-.396-.396h-.793c-.238 0-.396.158-.396.396 0 .238.158.397.396.397zM13.079 28.536h-.793c-.238 0-.396.158-.396.396 0 .238.158.397.396.397h.793c.238 0 .396-.159.396-.397 0-.238-.158-.396-.396-.396zM14.664 22.987h-.792c-.238 0-.397.159-.397.397 0 .237.159.396.397.396h.792c.238 0 .397-.159.397-.396 0-.238-.159-.397-.397-.397zM10.701 28.536H9.116c-.238 0-.397.158-.397.396 0 .238.159.397.397.397H10.7c.238 0 .396-.159.396-.397 0-.238-.158-.396-.396-.396zM17.835 21.402H16.25c-.238 0-.397.158-.397.396 0 .238.159.397.397.397h1.585c.238 0 .396-.159.396-.397 0-.238-.158-.396-.396-.396zM19.024 23.78c-.793 0-1.506.317-2.061.793h-1.506c-.238 0-.396.158-.396.396 0 .238.158.396.396.396h.872c-.238.476-.476 1.03-.476 1.586a3.18 3.18 0 0 0 3.17 3.17 3.18 3.18 0 0 0 3.172-3.17 3.18 3.18 0 0 0-3.171-3.171zm0 4.756a1.59 1.59 0 0 1-1.585-1.585 1.59 1.59 0 0 1 1.585-1.586 1.59 1.59 0 0 1 1.585 1.586 1.59 1.59 0 0 1-1.585 1.585z"/>
                <circle cx="19.024" cy="26.951" r="1"/>
                <path d="M31.707 11.494v-3.33c0-.317.158-.634.317-.871l1.426-1.427c.397-.317.635-.872.635-1.348V3.091c.475-.158.792-.634.792-1.11 0-.633-.555-1.188-1.189-1.188S32.5 1.348 32.5 1.982c0 .555.317.95.793 1.11v1.426c0 .317-.159.634-.317.872l-1.427 1.427c-.396.317-.634.872-.634 1.347v2.854c-.476-.238-1.03-.476-1.585-.555V7.055c.475-.159.792-.634.792-1.11 0-.634-.555-1.189-1.189-1.189s-1.189.555-1.189 1.189c0 .555.317.951.793 1.11v3.329c-.238 0-.555-.08-.793-.08-.872 0-1.664.16-2.378.397V5.549c0-1.348-1.03-2.378-2.378-2.378h-1.585v-.793C21.402 1.03 20.372 0 19.024 0s-2.378 1.03-2.378 2.378v.793H2.378C1.03 3.17 0 4.2 0 5.549v25.365c0 1.347 1.03 2.378 2.378 2.378h20.61c1.347 0 2.377-1.03 2.377-2.378v-6.738a7.472 7.472 0 0 0 2.378.397v4.835a1.192 1.192 0 0 0-.792 1.11c0 .634.554 1.189 1.189 1.189.634 0 1.189-.555 1.189-1.19 0-.554-.317-.95-.793-1.11v-4.914c.555-.079 1.11-.158 1.585-.396v1.744c0 .555.238 1.03.555 1.427l1.427 1.426c.238.238.317.555.317.872v1.427a1.192 1.192 0 0 0-.793 1.11c0 .634.555 1.189 1.19 1.189.633 0 1.188-.555 1.188-1.19 0-.554-.317-.95-.792-1.109v-1.427c0-.554-.238-1.03-.555-1.426l-1.427-1.427c-.238-.238-.317-.555-.317-.872V23.78c2.378-1.19 3.963-3.567 3.963-6.42 0-2.379-1.268-4.598-3.17-5.866zm1.981-9.909c.238 0 .397.159.397.397 0 .237-.159.396-.397.396-.238 0-.396-.159-.396-.396 0-.238.158-.397.396-.397zm-.792 30.122c.237 0 .396.158.396.396 0 .238-.159.396-.396.396-.238 0-.397-.158-.397-.396 0-.238.159-.396.397-.396zM28.932 5.549c.238 0 .397.158.397.396 0 .238-.159.396-.397.396-.238 0-.396-.158-.396-.396 0-.238.158-.396.396-.396zm-10.7-3.171c0-.476.316-.793.792-.793.476 0 .793.317.793.793v.793H18.23v-.793zM2.377 31.707c-.476 0-.793-.318-.793-.793V5.549c0-.476.317-.793.793-.793h.159c-.08.238-.159.476-.159.793v25.365c0 .317.08.555.159.793h-.159zm2.537 0h-.159c-.476 0-.793-.318-.793-.793V5.549c0-.476.317-.793.793-.793h5.232L5.469 9.274c-.475.476-.713 1.03-.713 1.665v19.975c0 .317.08.555.159.793zm6.182-25.841v2.853c0 .476-.317.793-.792.793H7.45l3.646-3.646zM23.78 30.914c0 .475-.317.793-.793.793H7.134c-.476 0-.793-.318-.793-.793V11.89c0-.476.317-.793.793-.793h3.17c1.348 0 2.379-1.03 2.379-2.378V5.55c0-.476.317-.793.792-.793h6.342v4.756c0 .476-.317.793-.793.793-.476 0-.793-.317-.793-.793V7.134c0-.476-.317-.793-.792-.793-.476 0-.793.317-.793.793v2.378c0 1.347 1.03 2.378 2.378 2.378 1.347 0 2.378-1.03 2.378-2.378V4.756h1.585c.476 0 .793.317.793.793v5.945c-1.665 1.11-2.854 3.012-3.091 5.152h-4.44c-.237 0-.396.158-.396.396 0 .238.159.397.397.397h4.36c0 .237 0 .554.079.792H19.42c-.238 0-.396.159-.396.397 0 .237.158.396.396.396h1.348c.396 1.823 1.506 3.33 3.012 4.36v7.53zm4.36 0c-.238 0-.397-.159-.397-.396 0-.238.159-.397.397-.397.237 0 .396.159.396.397 0 .237-.159.396-.396.396zm-.397-7.927a5.514 5.514 0 0 1-5.548-5.548 5.514 5.514 0 0 1 5.548-5.549 5.514 5.514 0 0 1 5.549 5.549 5.514 5.514 0 0 1-5.549 5.548z"/>
                <path d="M30.121 16.646V15.06c0-1.348-1.03-2.378-2.378-2.378-1.347 0-2.378 1.03-2.378 2.378v1.585c-.475 0-.792.317-.792.793v3.17c0 .476.317.793.792.793h4.756c.476 0 .793-.317.793-.793v-3.17c0-.476-.317-.793-.793-.793zm-2.378 3.17c-.475 0-.792-.316-.792-.792 0-.476.317-.793.792-.793.476 0 .793.317.793.793 0 .476-.317.793-.793.793zm.793-3.17H26.95V15.06c0-.476.317-.793.792-.793.476 0 .793.317.793.793v1.585z"/>
            </g>
        </g>
        <g fill="#8D9AA7">
            <path d="M197.504 1.373l23.555 13.562c2.498 1.428 3.57 3.57 3.57 6.424v27.125c0 2.855-1.072 4.996-3.57 6.424L197.504 68.47c-2.141 1.427-4.997 1.427-7.495 0l-23.555-13.562c-2.141-1.428-3.569-3.57-3.569-6.424V21.359c0-2.855 1.428-4.996 3.569-6.424l23.555-13.562c2.498-1.427 5.354-1.427 7.495 0zm-1.74 2.546a3.323 3.323 0 0 0-3.658 0l-24.145 13.902c-1.464.732-1.83 1.83-1.83 3.293v27.804c0 1.464.366 2.561 1.83 3.293l24.145 13.902a3.323 3.323 0 0 0 3.659 0l24.146-13.902c1.097-.732 1.829-1.83 1.829-3.293V21.114c0-1.463-.732-2.561-1.83-3.293L195.766 3.92z"/>
            <path fill-rule="nonzero" d="M209.086 31.08c-1.569 0-2.902 1.019-3.411 2.39h-4.744a7.715 7.715 0 0 0-1.294-3.135l3.333-3.333a3.6 3.6 0 0 0 4.155-.706 3.644 3.644 0 0 0 0-5.135 3.644 3.644 0 0 0-5.136 0c-1.097 1.097-1.332 2.783-.705 4.116l-3.411 3.372a7.777 7.777 0 0 0-3.097-1.294v-4.744a3.61 3.61 0 0 0 2.391-3.41c0-2-1.646-3.647-3.646-3.647s-3.646 1.647-3.646 3.646c0 1.608 1.02 2.94 2.47 3.45v4.744c-1.137.196-2.234.627-3.136 1.294l-3.372-3.372c.628-1.333.392-3.018-.705-4.116a3.644 3.644 0 0 0-5.136 0 3.644 3.644 0 0 0 0 5.136c1.137 1.137 2.822 1.372 4.155.705l3.372 3.372c-.666.902-1.098 1.96-1.294 3.136h-4.783a3.61 3.61 0 0 0-3.41-2.391c-2 0-3.646 1.646-3.646 3.646s1.646 3.646 3.646 3.646c1.607 0 2.94-1.02 3.45-2.47h4.743c.196 1.137.628 2.235 1.294 3.136l-3.372 3.372c-1.333-.627-3.018-.392-4.116.706a3.644 3.644 0 0 0 0 5.135 3.644 3.644 0 0 0 5.136 0c1.137-1.136 1.372-2.822.705-4.155l3.372-3.372c.94.667 2 1.137 3.176 1.333v4.744c-1.412.51-2.47 1.842-2.47 3.45 0 2 1.646 3.646 3.646 3.646s3.646-1.647 3.646-3.646c0-1.568-1.02-2.901-2.392-3.41v-4.862c1.176-.196 2.235-.628 3.137-1.294l3.332 3.332a3.6 3.6 0 0 0 .706 4.156 3.644 3.644 0 0 0 5.135 0 3.644 3.644 0 0 0 0-5.136c-1.097-1.097-2.783-1.333-4.116-.705l-3.372-3.372c.667-.902 1.098-2 1.294-3.136h4.744c.51 1.411 1.843 2.47 3.45 2.47 2 0 3.646-1.647 3.646-3.647-.078-1.999-1.686-3.646-3.724-3.646zm-5.49-8.273c.51-.51 1.334-.51 1.843 0 .51.51.51 1.333 0 1.843s-1.332.51-1.842 0a1.301 1.301 0 0 1 0-1.843zm-20.072 1.882c-.51.51-1.333.51-1.842 0a1.301 1.301 0 0 1 0-1.843c.51-.51 1.333-.51 1.842 0 .51.47.51 1.294 0 1.843zm-5.488 11.37a1.322 1.322 0 0 1-1.333-1.334c0-.744.588-1.332 1.333-1.332.744 0 1.332.588 1.332 1.332 0 .745-.627 1.333-1.332 1.333zm5.488 10.585c-.51.51-1.333.51-1.842 0a1.301 1.301 0 0 1 0-1.843c.51-.51 1.333-.51 1.842 0 .51.51.51 1.333 0 1.843zm8.704-27.444c0-.744.588-1.332 1.333-1.332.744 0 1.332.588 1.332 1.332 0 .745-.588 1.333-1.332 1.333-.745-.039-1.333-.627-1.333-1.333zm2.665 31.05c0 .745-.588 1.333-1.332 1.333a1.322 1.322 0 0 1-1.333-1.333c0-.744.588-1.332 1.333-1.332.744.039 1.332.627 1.332 1.332zm-.94-14.192l-1.177 1.137-1.137-1.176-1.097-1.137 1.176-1.137 1.098 1.137 2.666-2.626 1.136 1.176-2.665 2.626zm9.644 8.704c.51-.51 1.333-.51 1.842 0 .51.51.51 1.333 0 1.842-.51.51-1.332.51-1.842 0-.51-.47-.51-1.293 0-1.842zm5.489-8.704a1.322 1.322 0 0 1-1.333-1.333c0-.744.588-1.332 1.333-1.332.744 0 1.332.588 1.332 1.332 0 .745-.588 1.333-1.332 1.333z"/>
        </g>
    </g>
</svg>
